<svg width="16" height="16" viewBox="0 0 16 16" version="1.1" xmlns="http://www.w3.org/2000/svg" xmlns:xlink="http://www.w3.org/1999/xlink">
<title>insta</title>
<desc>Created using Figma</desc>
<g id="Canvas" transform="translate(-1864 -6247)">
<g id="insta">
<g id="Fill 1">
<use xlink:href="#path0_fill" transform="translate(1864.14 6247.14)" fill="#3C4043"/>
</g>
<g id="Fill 4">
<use xlink:href="#path1_fill" transform="translate(1867.79 6250.79)" fill="#3C4043"/>
</g>
<g id="Fill 5">
<use xlink:href="#path2_fill" transform="translate(1874.74 6249.74)" fill="#3C4043"/>
</g>
</g>
</g>
<defs>
<path id="path0_fill" fill-rule="evenodd" d="M 7.50001 -1.66804e-10C 5.46312 -1.66804e-10 5.20771 0.00863367 4.40776 0.0451333C 3.60947 0.0815436 3.06427 0.20834 2.58721 0.393755C 2.09402 0.585393 1.67577 0.841843 1.25879 1.25879C 0.841843 1.67577 0.585393 2.09402 0.393755 2.58721C 0.20834 3.06427 0.0815436 3.60947 0.0451333 4.40776C 0.00863368 5.20771 0 5.46312 0 7.50001C 0 9.53688 0.00863368 9.79229 0.0451333 10.5922C 0.0815436 11.3905 0.20834 11.9357 0.393755 12.4128C 0.585393 12.906 0.841843 13.3242 1.25879 13.7412C 1.67577 14.1582 2.09402 14.4146 2.58721 14.6063C 3.06427 14.7917 3.60947 14.9185 4.40776 14.9549C 5.20771 14.9914 5.46312 15 7.50001 15C 9.53688 15 9.79229 14.9914 10.5922 14.9549C 11.3905 14.9185 11.9357 14.7917 12.4128 14.6063C 12.906 14.4146 13.3242 14.1582 13.7412 13.7412C 14.1582 13.3242 14.4146 12.906 14.6063 12.4128C 14.7917 11.9357 14.9185 11.3905 14.9549 10.5922C 14.9914 9.79229 15 9.53688 15 7.50001C 15 5.46312 14.9914 5.20771 14.9549 4.40776C 14.9185 3.60947 14.7917 3.06427 14.6063 2.58721C 14.4146 2.09402 14.1582 1.67577 13.7412 1.25879C 13.3242 0.841843 12.906 0.585393 12.4128 0.393755C 11.9357 0.20834 11.3905 0.0815436 10.5922 0.0451333C 9.79229 0.00863367 9.53688 -1.66804e-10 7.50001 -1.66804e-10ZM 7.50001 1.35135C 9.50258 1.35135 9.7398 1.359 10.5306 1.39508C 11.2619 1.42843 11.659 1.55061 11.9233 1.65332C 12.2734 1.78937 12.5232 1.9519 12.7856 2.21436C 13.0481 2.47679 13.2106 2.72663 13.3467 3.07671C 13.4494 3.34099 13.5716 3.73811 13.6049 4.46936C 13.641 5.2602 13.6487 5.49742 13.6487 7.50001C 13.6487 9.50258 13.641 9.7398 13.6049 10.5306C 13.5716 11.2619 13.4494 11.659 13.3467 11.9233C 13.2106 12.2734 13.0481 12.5232 12.7856 12.7856C 12.5232 13.0481 12.2734 13.2106 11.9233 13.3467C 11.659 13.4494 11.2619 13.5716 10.5306 13.6049C 9.73992 13.641 9.50273 13.6487 7.50001 13.6487C 5.49727 13.6487 5.26011 13.641 4.46936 13.6049C 3.73811 13.5716 3.34099 13.4494 3.07671 13.3467C 2.72663 13.2106 2.47679 13.0481 2.21436 12.7856C 1.95193 12.5232 1.78937 12.2734 1.65332 11.9233C 1.55061 11.659 1.42843 11.2619 1.39508 10.5306C 1.359 9.7398 1.35135 9.50258 1.35135 7.50001C 1.35135 5.49742 1.359 5.2602 1.39508 4.46936C 1.42843 3.73811 1.55061 3.34099 1.65332 3.07671C 1.78937 2.72663 1.9519 2.47679 2.21436 2.21436C 2.47679 1.9519 2.72663 1.78937 3.07671 1.65332C 3.34099 1.55061 3.73811 1.42843 4.46936 1.39508C 5.2602 1.359 5.49742 1.35135 7.50001 1.35135Z"/>
<path id="path1_fill" fill-rule="evenodd" d="M 3.85136 6.35135C 2.47063 6.35135 1.35135 5.23207 1.35135 3.85136C 1.35135 2.47063 2.47063 1.35135 3.85136 1.35135C 5.23207 1.35135 6.35135 2.47063 6.35135 3.85136C 6.35135 5.23207 5.23207 6.35135 3.85136 6.35135ZM 3.85136 -1.09026e-07C 1.72429 -1.09026e-07 -7.26838e-09 1.72429 -7.26838e-09 3.85136C -7.26838e-09 5.9784 1.72429 7.7027 3.85136 7.7027C 5.9784 7.7027 7.7027 5.9784 7.7027 3.85136C 7.7027 1.72429 5.9784 -1.09026e-07 3.85136 -1.09026e-07Z"/>
<path id="path2_fill" fill-rule="evenodd" d="M 1.8 0.900016C 1.8 1.39708 1.39705 1.8 0.899986 1.8C 0.402954 1.8 -4.43371e-07 1.39708 -4.43371e-07 0.900016C -4.43371e-07 0.402954 0.402954 3.27077e-08 0.899986 3.27077e-08C 1.39705 3.27077e-08 1.8 0.402954 1.8 0.900016Z"/>
</defs>
</svg>
