<svg width="400" height="103" viewBox="0 0 400 103" version="1.1" xmlns="http://www.w3.org/2000/svg" xmlns:xlink="http://www.w3.org/1999/xlink">
<title>tmbr-nameplate</title>
<desc>Created using Figma</desc>
<g id="Canvas" transform="translate(-2058 -4167)">
<g id="tmbr-nameplate">
<use xlink:href="#path0_fill" transform="translate(2058 4167.49)" fill="#272B2E"/>
<use xlink:href="#path1_fill" transform="translate(2058 4167.49)" fill="#272B2E"/>
<use xlink:href="#path2_fill" transform="translate(2058 4167.49)" fill="#272B2E"/>
<use xlink:href="#path3_fill" transform="translate(2058 4167.49)" fill="#272B2E"/>
</g>
</g>
<defs>
<path id="path0_fill" d="M 95.5205 0.0811593C 72.4165 9.36485 28.9732 21.9464 1.10331 17.8248C -2.03707 16.9034 1.49589 32.9371 12.0943 34.4825C 15.5306 34.9835 27.3504 33.5338 41.6338 31.0914C 40.1399 34.8609 19.9847 85.8067 19.9534 90.5358C 19.9041 97.965 32.4185 101.886 33.3494 99.3624C 50.9978 48.1642 58.8089 29.1666 58.8089 29.1666C 59.1412 28.2418 60.1336 27.798 60.6465 27.5685L 60.6692 27.5582C 60.7193 27.5357 60.7647 27.5152 60.8035 27.4967C 86.1787 22.3321 111.381 15.5611 109.442 11.5441C 109.442 8.15001 97.9615 -0.951556 95.5205 0.0811593Z"/>
<path id="path1_fill" fill-rule="evenodd" d="M 190.392 72.6207C 188.407 77.817 187.414 82.2989 187.414 86.068C 187.414 88.109 187.702 89.7316 188.277 90.9352C 188.853 92.0865 190.096 93.4215 192.007 94.9391C 193.917 96.4566 196.036 97.7525 198.366 98.8253C 200.695 99.8981 202.723 100.435 204.45 100.435C 205.025 100.435 205.549 100.356 206.02 100.199C 207.014 99.8854 209.461 97.4254 213.36 92.8194C 217.26 88.2135 221.054 83.15 224.744 77.6285C 228.399 72.1583 230.732 67.6774 231.742 64.1847C 233.037 64.816 234.826 65.4635 237.108 66.1275L 240.17 67.069C 240.903 67.3307 241.269 67.6715 241.269 68.09C 241.269 68.2467 241.191 68.5348 241.034 68.9537L 238.914 72.4859C 236.402 76.6207 234.465 80.1144 233.105 82.9669C 231.744 85.819 231.064 88.3707 231.064 90.6212C 231.064 92.5577 231.691 94.0758 232.948 95.1744C 233.994 96.2213 235.564 97.3072 237.658 98.4327C 239.751 99.5582 241.727 100.448 243.585 101.102C 245.443 101.756 246.529 101.953 246.843 101.691C 247 101.586 247.131 101.455 247.236 101.298C 250.247 94.8316 253.34 89.1217 256.514 84.1686C 255.67 87.0611 255.169 89.0289 255.008 90.0719C 254.904 90.6998 256.12 91.8902 258.659 93.6441C 261.197 95.3971 263.827 96.9674 266.549 98.3541C 269.27 99.7408 270.762 100.225 271.023 99.8063C 274.426 94.0494 278.534 87.7164 283.349 80.8082C 284.183 79.6119 284.971 78.4952 285.716 77.4576C 283.399 84.5123 281.639 90.7667 281.857 91.7584C 283.359 98.5851 293.575 101.767 295.36 100.159L 314.94 73.0299C 311.191 83.5816 308.904 89.8121 308.079 91.7203C 307.922 92.0348 307.843 92.3746 307.843 92.7408C 307.843 93.9449 308.563 95.1227 310.002 96.274C 311.441 97.4254 313.09 98.3932 314.948 99.1783C 316.806 99.9635 318.232 100.356 319.227 100.356C 319.75 100.356 320.038 100.252 320.09 100.042C 322.131 94.442 325.062 87.7037 328.883 79.8268C 332.703 71.9498 337.047 65.2638 341.915 59.7682C 340.345 63.275 338.186 69.1105 335.438 77.275C 332.69 85.44 331.316 90.255 331.316 91.7203C 331.316 92.7672 332.154 93.984 333.829 95.3707C 335.503 96.7579 337.348 97.9747 339.364 99.0216C 341.378 100.068 342.621 100.54 343.093 100.435L 343.25 100.435C 346.337 93.6832 349.373 87.9913 352.356 83.3595C 353.964 80.8639 355.617 78.402 357.315 75.9742C 356.195 79.6109 355.635 82.8443 355.635 85.6754C 355.635 87.7164 355.923 89.3395 356.499 90.5426C 357.074 91.6944 358.317 93.0289 360.228 94.5465C 362.138 96.0646 364.258 97.36 366.587 98.4332C 368.916 99.5055 370.944 100.043 372.671 100.043C 373.247 100.043 373.77 99.9635 374.241 99.8067C 375.236 99.4928 377.682 97.0328 381.582 92.4274C 385.481 87.8214 389.275 82.7574 392.965 77.2359C 396.655 71.7145 398.997 67.2003 399.991 63.694C 400.043 63.2223 399.86 62.817 399.442 62.4772C 399.023 62.1363 398.552 61.9664 398.029 61.9664C 397.243 61.9664 396.668 62.3067 396.302 62.9869C 395.307 66.7555 392.952 71.4137 389.236 76.9615C 385.52 82.5094 381.791 87.2457 378.049 91.171C 374.306 95.0963 372.069 96.588 371.336 95.6461C 371.127 95.3844 371.022 94.8873 371.022 94.1539C 371.022 93.0553 371.258 91.5895 371.729 89.7579C 372.2 87.9264 372.723 86.2643 373.299 84.7731C 373.875 83.2809 374.215 82.5875 374.32 82.692C 374.895 83.1109 375.497 83.3204 376.125 83.3204C 378.062 83.3204 380.325 81.8024 382.916 78.7672C 385.507 75.7311 387.757 72.1988 389.668 68.1686C 391.578 64.1383 392.533 60.8937 392.533 58.4337C 392.533 57.9625 392.507 57.6227 392.455 57.4132C 392.245 56.628 391.931 56.026 391.512 55.6075C 391.272 55.3678 390.411 54.7936 389.399 54.1197L 389.388 54.1129L 389.376 54.1051L 389.373 54.1026L 389.368 54.1002L 389.352 54.089C 388.609 53.5948 387.789 53.0494 387.077 52.5455C 385.376 51.3419 383.439 50.2301 381.267 49.2096C 379.095 48.1886 377.46 47.6783 376.361 47.6783C 374.215 47.6783 371.48 49.9288 368.157 54.4298C 365.502 58.0255 363.106 62.1139 360.969 66.6944C 359.896 67.7799 358.478 69.6061 356.713 72.1725C 354.123 75.9405 351.362 80.3111 348.431 85.2828C 349.582 82.1427 352.382 74.7892 356.831 63.2223C 356.988 62.8038 357.067 62.3854 357.067 61.9664C 357.067 60.6578 356.386 59.402 355.025 58.1979C 353.665 56.9942 352.016 55.9869 350.08 55.1754C 348.143 54.3644 346.364 53.8541 344.741 53.6446C 343.694 53.4879 341.915 54.7569 339.403 57.4523C 336.89 60.1481 334.588 62.8824 332.494 65.6564C 334.221 61.3121 335.006 58.774 334.849 58.0411C 334.745 57.5699 333.973 56.8766 332.533 55.9606C 331.094 55.0445 329.485 54.2335 327.705 53.527C 325.926 52.8204 324.486 52.4674 323.387 52.4674C 322.445 52.4674 321.896 52.755 321.739 53.3307C 321.323 54.7691 320.051 58.5201 317.924 64.5836L 317.735 64.5172L 297.323 91.6803C 297.323 91.6803 307.242 63.4664 306.979 62.0045C 306.252 57.9625 299.636 55.3316 294.968 55.3316C 293.916 55.3316 290.998 62.3649 288.179 70.2618C 286.361 72.3258 284.711 74.3365 283.231 76.2936C 280.798 79.5123 278.115 83.2941 275.184 87.6383C 274.556 88.5279 273.719 89.7574 272.672 91.3277C 271.626 92.8981 270.683 94.2325 269.846 95.3316C 275.289 78.0602 280.68 62.2545 286.018 47.9137C 286.908 45.4015 287.641 43.295 288.217 41.5939C 288.792 39.8932 289.08 38.8331 289.08 38.4147C 289.08 37.6295 288.295 36.6871 286.725 35.5885C 285.155 34.4889 283.323 33.547 281.229 32.7618C 279.136 31.9772 277.383 31.5846 275.97 31.5846C 275.08 31.5846 274.452 31.7672 274.085 32.1339C 273.771 32.4479 272.057 37.1061 268.943 46.108C 265.829 55.11 262.806 64.1774 259.876 73.3107C 259.627 74.0846 259.388 74.8331 259.159 75.5563C 258.756 76.17 258.34 76.8082 257.913 77.4713C 252.731 85.5055 248.544 92.5055 245.352 98.4723C 245.299 98.1578 245.273 97.6608 245.273 96.9801C 245.273 92.1651 248.466 83.7389 254.851 71.7013C 255.113 71.2301 255.243 70.733 255.243 70.2096C 255.243 69.1105 254.616 68.234 253.359 67.5797C 252.103 66.9254 250.324 66.2843 248.021 65.6559C 246.346 65.1324 245.103 64.6881 244.292 64.3219C 243.48 63.9552 243.075 63.5104 243.075 62.9869C 243.075 62.7252 243.153 62.4898 243.311 62.2804C 243.729 61.5475 244.069 60.9981 244.331 60.6315C 246.006 57.8053 247.21 55.6861 247.942 54.2731C 248.675 52.8595 249.042 51.734 249.042 50.8971C 249.042 50.6354 248.989 50.4 248.885 50.19C 248.361 49.1959 246.909 48.149 244.527 47.0504C 242.146 45.9508 240.17 45.4015 238.6 45.4015C 238.234 45.4015 237.972 45.4273 237.815 45.4801C 236.716 45.7418 235.564 46.6441 234.361 48.1881C 233.157 49.7325 232.084 51.4728 231.142 53.4088C 230.2 55.3453 229.546 56.942 229.179 58.1979C 229.016 58.6871 228.917 59.192 228.881 59.7125C 228.582 60.6515 228.476 61.4273 228.391 62.0504C 228.314 62.6178 228.253 63.0582 228.08 63.3795C 227.086 67.1481 224.731 71.8058 221.015 77.3536C 217.299 82.9015 213.57 87.6383 209.827 91.5631C 206.085 95.4889 203.848 96.9801 203.115 96.0382C 202.906 95.7765 202.801 95.2794 202.801 94.5465C 202.801 93.4474 203.037 91.982 203.508 90.15C 203.979 88.3185 204.502 86.6568 205.078 85.1651C 205.654 83.6734 205.994 82.9801 206.098 83.0846C 206.674 83.5035 207.276 83.7125 207.904 83.7125C 209.841 83.7125 212.104 82.1949 214.695 79.1593C 217.286 76.1236 219.536 72.5909 221.447 68.5611C 223.357 64.5309 224.312 61.2857 224.312 58.8258C 224.312 58.3551 224.286 58.0148 224.233 57.8053C 224.024 57.0201 223.71 56.4186 223.291 55.9996C 223.051 55.7594 222.183 55.1817 221.167 54.5055L 221.155 54.4977L 221.151 54.4947L 221.147 54.4923L 221.131 54.4811L 221.117 54.4718L 221.092 54.4552C 220.359 53.9679 219.555 53.4332 218.856 52.9381C 217.155 51.734 215.218 50.6222 213.046 49.6017C 210.874 48.5807 209.239 48.0709 208.14 48.0709C 205.994 48.0709 203.259 50.3209 199.936 54.8219C 197.892 57.5899 196.001 60.65 194.265 64.0016C 194.062 64.1041 193.872 64.315 193.694 64.6354C 192.7 66.9908 190.057 69.8692 185.765 73.2711C 185.818 73.1139 185.844 72.8785 185.844 72.565C 185.844 72.2506 185.818 72.0416 185.765 71.9366C 185.294 70.2096 184.051 68.6656 182.036 67.3048C 180.021 65.944 177.967 65.2633 175.873 65.2633C 174.774 65.2633 173.754 65.4991 172.812 65.9703C 171.451 66.7027 169.685 68.0895 167.512 70.131C 165.34 72.1725 163.443 74.109 161.821 75.9405L 176.815 35.9806C 176.815 35.1432 176.135 34.2799 174.774 33.3902C 173.414 32.5001 171.765 31.7545 169.828 31.1524C 167.892 30.5504 166.191 30.2496 164.726 30.2496C 163.626 30.2496 162.789 30.4586 162.213 30.8775C 160.8 31.9244 158.393 36.8961 154.991 45.7936C 152.389 52.5973 149.949 59.5768 147.669 66.732C 146.913 67.6197 146.05 68.6998 145.08 69.9742C 142.411 73.4811 139.48 77.6158 136.288 82.3785L 142.568 63.5367C 142.725 63.0655 142.804 62.6471 142.804 62.2809C 142.804 60.9195 142.045 59.7423 140.527 58.7477C 139.009 57.7535 136.157 56.2877 131.97 54.3512C 131.446 54.0895 130.975 53.9586 130.557 53.9586C 129.458 53.9586 128.372 54.6002 127.299 55.8824C 126.226 57.1647 125.035 59.0094 123.727 61.4171C 120.743 59.0621 118.061 57.1119 115.68 55.568C 113.298 54.024 111.715 53.2784 110.93 53.3307C 110.04 53.4352 109.177 53.8932 108.339 54.7047C 107.502 55.5162 106.612 56.8111 105.67 58.5904C 104.728 60.3702 104.126 61.4693 103.864 61.8883C 102.294 60.0563 100.188 58.316 97.5447 56.6676C 94.9016 55.0187 92.8472 54.1944 91.3819 54.1944C 91.1018 54.1944 90.8599 54.3043 90.6028 54.4215L 90.5984 54.4234C 90.4729 54.4801 90.3433 54.5387 90.2041 54.587C 89.9424 54.6773 88.471 59.0162 86.6548 64.7599L 66.5135 91.5636C 66.5135 91.5636 76.4327 63.3492 76.1697 61.8883C 75.4424 57.8458 68.8265 55.2149 64.1582 55.2149C 61.8453 55.2149 50.513 89.2125 51.0476 91.6422C 52.5494 98.4684 62.7657 101.651 64.5508 100.043L 84.1331 72.9098C 81.2815 82.3028 78.5066 92.026 78.5066 93.2125C 78.5066 93.9972 79.4356 94.9918 81.2937 96.1954C 83.1516 97.399 85.1143 98.4459 87.1817 99.3356C 89.2491 100.225 90.0266 100.355 90.5967 100.199C 91.961 96.6022 93.198 93.2418 94.3577 90.0909L 94.3641 90.0738C 99.4407 76.2809 103.038 66.5065 109.36 58.5123C 109.477 59.2379 106.159 68.6481 103.165 77.1383L 103.164 77.1422L 103.159 77.1539L 103.151 77.1774C 100.731 84.0426 98.5259 90.2955 98.5259 90.857C 98.5259 92.1129 99.2586 93.4347 100.724 94.8219C 102.189 96.2086 103.904 97.3863 105.866 98.3541C 107.829 99.3229 109.386 99.8067 110.537 99.8067C 111.375 99.8067 111.82 99.5709 111.872 99.1002C 112.71 94.7037 125.846 60.0426 128.594 57.9625C 128.386 59.1715 125.336 68.0846 122.49 76.4025L 122.489 76.4064L 122.487 76.4117L 122.484 76.4186L 122.473 76.4523L 122.458 76.4952C 119.957 83.8058 117.622 90.631 117.524 91.3277C 117.315 92.8199 118.1 93.67 119.88 95.0572C 121.659 96.444 123.648 97.6217 125.846 98.59C 128.044 99.5582 129.379 99.9376 129.85 99.7281C 130.007 99.6759 130.426 98.734 131.106 96.902C 134.089 90.7262 137.138 85.401 140.252 80.9259C 141.977 78.4479 143.729 76.0465 145.51 73.7208C 142.726 83.0182 141.438 88.4947 141.645 90.15C 141.802 91.5631 142.534 93.0416 143.843 94.5856C 145.151 96.1295 146.604 97.4254 148.2 98.4718C 149.796 99.5187 151.092 100.042 152.086 100.042C 152.662 100.042 153.028 99.8063 153.185 99.3356C 153.499 98.2364 153.931 97.0191 154.48 95.6852C 155.03 94.3502 155.436 93.4737 155.697 93.0553C 155.959 93.6305 156.77 94.4684 158.131 95.567C 159.492 96.6661 160.905 97.6734 162.37 98.5895C 163.836 99.5055 164.778 99.9635 165.197 99.9635C 166.662 99.9635 168.651 98.7467 171.163 96.3131C 173.675 93.8795 176.174 90.9088 178.66 87.4025C 181.147 83.8961 183.044 80.6774 184.352 77.7462C 186.608 76.0108 188.622 74.3024 190.392 72.6207ZM 166.06 81.8287C 169.096 77.3795 171.32 73.2189 172.733 69.3458C 172.419 69.2936 171.373 69.9347 169.593 71.2691C 167.814 72.6041 165.838 74.5011 163.666 76.961C 161.494 79.4205 159.57 82.378 157.896 85.8321C 157.529 86.565 157.346 87.4283 157.346 88.423C 157.346 89.0509 157.438 89.6002 157.621 90.0719C 157.804 90.5426 158.079 90.8829 158.445 91.0924C 160.486 89.3649 163.025 86.277 166.06 81.8287ZM 380.736 74.8024C 382.751 72.0543 384.479 69.0973 385.918 65.9308C 387.357 62.7643 388.024 60.3961 387.92 58.8258C 387.292 59.2447 386.009 60.8932 384.073 63.7721C 382.136 66.6505 380.304 69.673 378.577 72.8395C 376.85 76.006 375.83 78.3483 375.516 79.8658C 376.981 79.2379 378.721 77.5499 380.736 74.8024ZM 217.678 65.9308C 216.239 69.0973 214.512 72.0543 212.497 74.8024C 210.481 77.5499 208.741 79.2379 207.276 79.8658C 207.59 78.3483 208.611 76.006 210.338 72.8395C 212.065 69.673 213.897 66.6505 215.833 63.7721C 217.77 60.8932 219.052 59.2447 219.68 58.8258C 219.785 60.3961 219.117 62.7643 217.678 65.9308Z"/>
<path id="path2_fill" d="M 67.7107 50.2545C 67.0059 49.6022 66.7525 48.9166 66.552 48.3746C 66.5086 48.2574 66.4678 48.1476 66.4256 48.0455C 66.187 47.4718 65.9456 46.4703 65.9456 45.4283C 65.9456 44.2047 67.3274 41.588 68.1844 40.5006C 69.0413 39.4132 70.135 38.5406 71.4654 37.8834C 72.7959 37.2267 74.0926 36.8981 75.3553 36.8981C 75.5808 36.8981 75.9641 36.9435 76.5054 37.0338C 77.9937 37.3058 79.2227 38.2574 80.1924 39.8888C 81.1621 41.5201 81.647 43.2193 81.647 44.9864C 81.647 45.7569 81.5567 46.3912 81.3763 46.8898C 80.9705 48.2945 80.17 49.5973 78.9746 50.798C 77.7796 51.9991 76.1897 52.5992 74.2054 52.5992C 73.0777 52.5992 71.9729 52.4181 70.8904 52.0558C 69.6275 51.6476 68.5677 51.0475 67.7107 50.2545Z"/>
<path id="path3_fill" d="M 298.658 50.2545C 297.954 49.6022 297.7 48.9166 297.5 48.3746C 297.456 48.2574 297.416 48.1476 297.373 48.0455C 297.135 47.4718 296.893 46.4703 296.893 45.4283C 296.893 44.2047 298.275 41.588 299.132 40.5006C 299.989 39.4132 301.083 38.5406 302.413 37.8834C 303.744 37.2267 305.04 36.8981 306.303 36.8981C 306.529 36.8981 306.912 36.9435 307.453 37.0338C 308.941 37.3058 310.17 38.2574 311.14 39.8888C 312.11 41.5201 312.595 43.2193 312.595 44.9864C 312.595 45.7569 312.504 46.3912 312.324 46.8898C 311.918 48.2945 311.118 49.5973 309.922 50.798C 308.727 51.9991 307.137 52.5992 305.153 52.5992C 304.026 52.5992 302.921 52.4181 301.838 52.0558C 300.575 51.6476 299.515 51.0475 298.658 50.2545Z"/>
</defs>
</svg>
