<svg width="12" height="13" viewBox="0 0 12 13" version="1.1" xmlns="http://www.w3.org/2000/svg" xmlns:xlink="http://www.w3.org/1999/xlink">
<title>etsy</title>
<desc>Created using Figma</desc>
<g id="Canvas" transform="translate(-2038 -6248)">
<g id="etsy">
<use xlink:href="#path0_fill" transform="translate(2038.86 6248.64)" fill="#3C4043"/>
</g>
</g>
<defs>
<path id="path0_fill" d="M 3.52192 5.6248L 3.52192 1.2227C 3.52192 1.05958 3.53819 0.961748 3.81551 0.961748L 7.54907 0.961748C 8.20134 0.961748 8.56003 1.51619 8.82097 2.55959L 9.03291 3.39125L 9.66871 3.39125C 9.78272 1.02723 9.88046 0 9.88046 0C 9.88046 0 8.28271 0.179292 7.33704 0.179292L 2.56017 0.179292L 0 0.0977341L 0 0.782552L 0.864304 0.945572C 1.46756 1.05977 1.61402 1.19005 1.66332 1.74459C 1.66332 1.74459 1.71233 3.37498 1.71233 6.06533C 1.71233 8.7553 1.66332 10.3696 1.66332 10.3696C 1.66332 10.8587 1.46756 11.038 0.864304 11.1525L 0 11.3156L 0 12L 2.56017 11.9186L 6.8319 11.9186C 7.79384 11.9186 10.0275 12 10.0275 12C 10.0762 11.4129 10.4025 8.7553 10.4515 8.4622L 9.8482 8.4622L 9.2123 9.91329C 8.70677 11.0543 7.97323 11.136 7.15785 11.136L 4.72834 11.136C 3.91305 11.136 3.52173 10.8099 3.52173 10.1089L 3.52173 6.39137C 3.52173 6.39137 5.29886 6.39137 5.9183 6.44039C 6.37491 6.47312 6.65193 6.6035 6.79887 7.23931L 6.99463 8.08714L 7.69534 8.08714L 7.64661 5.95104L 7.74435 3.79904L 7.04345 3.79904L 6.81534 4.74461C 6.6684 5.36415 6.57076 5.47854 5.93476 5.54354C 5.2175 5.62529 3.52163 5.60892 3.52163 5.60892L 3.52163 5.62509L 3.52192 5.62509L 3.52192 5.6248Z"/>
</defs>
</svg>
