<svg width="401" height="105" viewBox="0 0 401 105" version="1.1" xmlns="http://www.w3.org/2000/svg" xmlns:xlink="http://www.w3.org/1999/xlink">
<title>nameplate</title>
<desc>Created using Figma</desc>
<g id="Canvas" transform="translate(4204 -2510)">
<g id="nameplate">
<use xlink:href="#path0_fill" transform="translate(-4203.77 2510)" fill="#4F4F4F"/>
<use xlink:href="#path1_fill" transform="translate(-4203.77 2510)" fill="#4F4F4F"/>
<use xlink:href="#path2_fill" transform="translate(-4203.77 2510)" fill="#4F4F4F"/>
<use xlink:href="#path3_fill" transform="translate(-4203.77 2510)" fill="#4F4F4F"/>
<use xlink:href="#path4_fill" transform="translate(-4203.77 2510)" fill="#4F4F4F"/>
<use xlink:href="#path5_fill" transform="translate(-4203.77 2510)" fill="#4F4F4F"/>
<use xlink:href="#path6_fill" transform="translate(-4203.77 2510)" fill="#4F4F4F"/>
<use xlink:href="#path7_fill" transform="translate(-4203.77 2510)" fill="#4F4F4F"/>
<use xlink:href="#path8_fill" transform="translate(-4203.77 2510)" fill="#4F4F4F"/>
<use xlink:href="#path9_fill" transform="translate(-4203.77 2510)" fill="#4F4F4F"/>
<use xlink:href="#path10_fill" transform="translate(-4203.77 2510)" fill="#4F4F4F"/>
<use xlink:href="#path11_fill" transform="translate(-4203.77 2510)" fill="#4F4F4F"/>
<use xlink:href="#path12_fill" transform="translate(-4203.77 2510)" fill="#4F4F4F"/>
<use xlink:href="#path13_fill" transform="translate(-4203.77 2510)" fill="#4F4F4F"/>
<use xlink:href="#path14_fill" transform="translate(-4203.77 2510)" fill="#4F4F4F"/>
<use xlink:href="#path15_fill" transform="translate(-4203.77 2510)" fill="#4F4F4F"/>
<use xlink:href="#path16_fill" transform="translate(-4203.77 2510)" fill="#4F4F4F"/>
<use xlink:href="#path17_fill" transform="translate(-4203.77 2510)" fill="#4F4F4F"/>
<use xlink:href="#path18_fill" transform="translate(-4203.77 2510)" fill="#4F4F4F"/>
<use xlink:href="#path19_fill" transform="translate(-4203.77 2510)" fill="#4F4F4F"/>
<use xlink:href="#path20_fill" transform="translate(-4203.77 2510)" fill="#4F4F4F"/>
<use xlink:href="#path21_fill" transform="translate(-4203.77 2510)" fill="#4F4F4F"/>
<use xlink:href="#path22_fill" transform="translate(-4203.77 2510)" fill="#4F4F4F"/>
<use xlink:href="#path23_fill" transform="translate(-4203.77 2510)" fill="#4F4F4F"/>
<use xlink:href="#path24_fill" transform="translate(-4203.77 2510)" fill="#4F4F4F"/>
<use xlink:href="#path25_fill" transform="translate(-4203.77 2510)" fill="#4F4F4F"/>
<use xlink:href="#path26_fill" transform="translate(-4203.77 2510)" fill="#4F4F4F"/>
</g>
</g>
<defs>
<path id="path0_fill" d="M 34.2287 55.3637C 34.9194 55.3637 35.2648 56.2212 35.2648 57.9361C 35.2648 59.0367 35.0601 59.7918 34.6508 60.2013C 34.2671 60.5853 33.9473 60.7772 33.6915 60.7772L 13.3154 60.7772C 12.7015 60.7772 12.3945 60.0478 12.3945 58.5888C 12.3945 57.2834 12.7398 56.298 13.4305 55.6325C 13.6352 55.4277 14.0445 55.3253 14.6585 55.3253L 14.7736 55.3253C 14.8759 55.3509 14.991 55.3637 15.119 55.3637C 15.7073 55.3637 16.3085 55.3253 16.9225 55.2485C 17.6644 55.1974 18.24 55.1078 18.6493 54.9798C 19.34 54.775 19.6853 54.3527 19.6853 53.7128L 19.6853 8.90734L 6.83039 8.90734L 5.14198 14.5896C 4.91174 15.2551 4.27219 15.5878 3.22333 15.5878C 1.94423 15.5622 0.972116 15.1655 0.306984 14.3976C 0.102328 14.1417 0 13.8857 0 13.6298L 0 13.4762L 1.45817 2.99471L 46.0092 2.99471L 47.4674 13.4762L 47.4674 13.6298C 47.4674 14.5512 46.7639 15.1655 45.3569 15.4727C 45.0499 15.5495 44.7301 15.5878 44.3975 15.5878L 44.1673 15.5878C 43.1696 15.5878 42.5556 15.2551 42.3254 14.5896L 40.637 8.90734L 27.782 8.90734L 27.782 55.3637L 34.2287 55.3637Z"/>
<path id="path1_fill" d="M 60.8212 11.9404C 58.442 11.9404 56.8176 10.891 55.9478 8.79216C 55.692 8.15226 55.5641 7.44838 55.5641 6.68051C 55.5641 4.2489 56.6257 2.59797 58.749 1.72772C 59.3886 1.47176 60.0793 1.34378 60.8212 1.34378C 62.3049 1.34378 63.5457 1.8557 64.5434 2.87953C 65.5666 3.87776 66.0783 5.14476 66.0783 6.68051C 66.0783 8.19066 65.5666 9.45765 64.5434 10.4815C 63.5712 11.4541 62.3305 11.9404 60.8212 11.9404ZM 51.6884 60.7772C 51.0233 60.7772 50.6907 59.9966 50.6907 58.4352C 50.6907 57.2066 50.8826 56.3876 51.2663 55.978C 51.65 55.5685 51.9826 55.3637 52.264 55.3637L 52.6477 55.3637C 55.6408 55.3637 57.3292 55.0694 57.713 54.4807C 57.8409 54.3015 57.9048 54.0839 57.9048 53.828L 57.9048 28.2578L 51.1512 28.2578C 50.4093 28.2322 49.9105 27.5795 49.6546 26.2997C 49.6035 25.9413 49.5779 25.5702 49.5779 25.1863C 49.5779 24.0089 49.9233 23.2922 50.614 23.0362C 51.3047 22.7547 52.2128 22.5243 53.3384 22.3451C 54.4641 22.166 55.6408 22.0252 56.8688 21.9228C 59.2223 21.718 61.4863 21.6029 63.6608 21.5773L 63.6992 21.5773C 64.7736 21.5773 65.3364 22.6651 65.3876 24.8407L 65.3876 55.3637L 71.8342 55.3637C 72.4994 55.3637 72.8319 56.1444 72.8319 57.7057C 72.8319 58.9343 72.6401 59.7534 72.2563 60.1629C 71.8726 60.5725 71.54 60.7772 71.2586 60.7772L 51.6884 60.7772Z"/>
<path id="path2_fill" d="M 145.932 55.3637C 146.623 55.3637 146.969 56.2596 146.969 58.0513C 146.969 59.8686 146.495 60.7772 145.549 60.7772L 127.936 60.7772C 127.27 60.7772 126.938 59.9966 126.938 58.4352C 126.938 57.181 127.245 56.2468 127.859 55.6325C 128.038 55.4533 128.23 55.3637 128.434 55.3637L 128.511 55.3637C 131.172 55.3637 132.502 54.8134 132.502 53.7128L 132.502 42.3099C 132.502 37.3443 132.221 34.0936 131.658 32.5579C 131.095 30.9965 130.366 29.8959 129.47 29.256C 128.601 28.5905 127.411 28.2578 125.902 28.2578C 123.062 28.2578 119.557 29.9087 115.388 33.2106L 115.388 55.3637L 121.335 55.3637C 122.026 55.3637 122.371 56.2596 122.371 58.0513C 122.371 59.8686 121.847 60.7772 120.798 60.7772L 103.338 60.7772C 102.673 60.7772 102.341 60.0222 102.341 58.512L 102.341 58.3584C 102.341 57.181 102.661 56.2724 103.3 55.6325C 103.479 55.4533 103.658 55.3637 103.837 55.3637L 103.914 55.3637C 106.575 55.3637 107.905 54.8134 107.905 53.7128L 107.905 42.3099C 107.905 37.3443 107.623 34.0936 107.061 32.5579C 106.498 30.9965 105.769 29.8959 104.873 29.256C 104.004 28.5905 102.814 28.2578 101.305 28.2578C 98.4651 28.2578 94.9603 29.9087 90.7905 33.2106L 90.7905 55.3637L 97.2371 55.3637C 97.9023 55.3637 98.2348 56.1188 98.2348 57.629C 98.2348 58.8832 98.0302 59.7278 97.6209 60.1629C 97.2371 60.5725 96.9174 60.7772 96.6615 60.7772L 77.1681 60.7772C 76.4518 60.7772 76.0936 60.0478 76.0936 58.5888C 76.0936 57.2578 76.2855 56.3876 76.6692 55.978C 77.0529 55.5685 77.3855 55.3637 77.6669 55.3637L 78.0506 55.3637C 80.9926 55.3637 82.6682 55.0694 83.0775 54.4807C 83.231 54.2759 83.3077 54.0199 83.3077 53.7128L 83.3077 28.2578L 76.5541 28.2578C 75.8122 28.2322 75.3134 27.5795 75.0575 26.2997C 75.0064 25.9413 74.9808 25.6086 74.9808 25.3015C 74.9808 24.0985 75.3134 23.369 75.9785 23.113C 76.6692 22.8315 77.539 22.5883 78.5879 22.3835C 79.6367 22.1788 80.7368 22.0252 81.8879 21.9228C 84.1903 21.6668 85.9171 21.5389 87.0683 21.5389L 87.2218 21.5389C 88.3474 21.5645 89.0253 21.6924 89.2556 21.9228C 89.5114 22.1788 89.6905 22.5115 89.7928 22.921C 89.9207 23.3562 89.9846 24.2648 89.9846 25.647L 89.9846 26.3765C 93.8475 24.2264 97.365 22.7547 100.537 21.9612C 101.56 21.7052 102.417 21.5773 103.108 21.5773C 107.841 21.5773 111.243 23.3818 113.315 26.9908C 117.281 24.6872 121.131 23.0362 124.866 22.038C 125.991 21.7308 127.36 21.5773 128.972 21.5773C 130.583 21.5773 132.182 21.9228 133.768 22.6139C 135.354 23.2794 136.608 24.252 137.529 25.5318C 139.166 27.7842 139.985 31.3677 139.985 36.2821L 139.985 55.3637L 145.932 55.3637Z"/>
<path id="path3_fill" d="M 160.936 52.8297C 163.367 54.5447 165.771 55.4021 168.15 55.4021C 173.037 55.4021 176.311 53.0729 177.974 48.4145C 178.639 46.5716 178.972 44.2551 178.972 41.4652C 178.972 38.6753 178.652 36.4356 178.012 34.7463C 177.373 33.1082 176.58 31.8028 175.633 30.8301C 173.945 29.1408 171.898 28.2834 169.493 28.2578C 167.268 28.2578 165.106 28.8849 163.008 30.1391C 162.241 30.5998 161.55 31.1757 160.936 31.8668L 160.936 52.8297ZM 160.936 24.7255C 164.467 22.6267 167.626 21.5773 170.414 21.5773C 173.177 21.5773 175.518 22.0252 177.437 22.921C 179.381 23.8425 181.044 25.1479 182.425 26.8372C 185.367 30.4206 186.838 35.207 186.838 41.1964L 186.838 41.5036C 186.838 47.6722 185.06 52.5738 181.504 56.2084C 178.179 59.6126 173.881 61.3148 168.611 61.3148C 166.564 61.3148 164.262 60.5469 161.704 59.0111C 161.09 58.6528 160.565 58.3584 160.13 58.1281L 157.444 61.3915C 157.189 61.5451 156.869 61.6219 156.485 61.6219C 155.718 61.6219 154.707 61.3148 153.454 60.7005C 152.354 60.1629 151.778 59.6254 151.727 59.0879L 153.454 52.1387L 153.454 6.68051L 146.7 6.68051C 145.958 6.68051 145.459 6.01501 145.203 4.68403C 145.152 4.32569 145.127 3.94175 145.127 3.53222C 145.127 2.40601 145.472 1.71492 146.163 1.45896C 146.828 1.17741 147.723 0.947045 148.849 0.767874C 149.974 0.588704 151.164 0.447927 152.417 0.345543C 154.797 0.140777 157.061 0.0255958 159.21 0C 160.31 0 160.885 1.08782 160.936 3.26347L 160.936 24.7255Z"/>
<path id="path4_fill" d="M 193.131 41.0429C 193.131 37.869 193.656 35.0535 194.705 32.5963C 195.728 30.1903 197.109 28.1682 198.849 26.5301C 202.379 23.2538 206.741 21.6029 211.934 21.5773L 212.049 21.5773C 216.807 21.5773 220.478 23.0746 223.062 26.0693C 225.646 29.0384 226.938 33.3257 226.938 38.9312C 226.938 40.1342 226.388 41.1709 225.288 42.0411C 224.213 42.8858 222.857 43.3081 221.22 43.3081L 200.998 43.3081C 201.458 49.2975 203.543 53.1369 207.252 54.8262C 208.429 55.3637 209.67 55.6325 210.975 55.6325C 212.279 55.6325 213.443 55.4917 214.467 55.2102C 215.49 54.903 216.475 54.5319 217.421 54.0967C 218.368 53.636 219.289 53.1241 220.184 52.561C 222.052 51.3836 223.152 50.7949 223.484 50.7949C 223.791 50.8205 224.124 50.974 224.482 51.2556C 224.789 51.5628 225.096 51.9211 225.403 52.3306C 226.068 53.3033 226.413 54.1223 226.439 54.7878L 226.439 54.8646C 226.439 55.4789 226.298 55.8884 226.017 56.0932C 221.335 59.7278 216.014 61.5451 210.054 61.5451C 204.707 61.5451 200.537 59.6766 197.544 55.9396C 194.602 52.305 193.131 47.3394 193.131 41.0429ZM 219.071 37.549L 219.071 37.3955C 219.071 32.3275 217.6 29.2048 214.658 28.0274C 213.738 27.6691 212.714 27.4899 211.589 27.4899C 210.463 27.4899 209.286 27.6947 208.058 28.1042C 206.83 28.5393 205.705 29.1664 204.681 29.9855C 202.405 31.854 201.177 34.3752 200.998 37.549L 219.071 37.549Z"/>
<path id="path5_fill" d="M 246.239 24.4184L 246.201 25.9541C 246.201 26.2613 246.188 26.5684 246.163 26.8756C 246.163 27.1827 246.163 27.4643 246.163 27.7203C 249.156 24.9815 252.162 23.1002 255.18 22.0764C 256.152 21.7692 257.163 21.6029 258.212 21.5773L 258.289 21.5773C 259.286 21.5773 260.182 21.7692 260.975 22.1532C 261.793 22.5627 262.446 23.049 262.932 23.6121C 263.801 24.636 264.236 25.6982 264.236 26.7988C 264.236 27.925 264.096 28.8081 263.814 29.448C 263.533 30.0879 263.136 30.6382 262.625 31.0989C 261.55 32.0971 260.489 32.5963 259.44 32.5963C 258.365 32.5963 257.547 32.4555 256.984 32.1739C 256.421 31.8668 255.922 31.4828 255.487 31.0221C 254.566 30.0495 254.106 28.9617 254.106 27.7587C 252.622 28.4497 251.497 29.2432 250.729 30.1391C 249.962 31.0349 249.322 31.8668 248.81 32.6347L 247.122 35.2454L 247.122 55.3637L 256.447 55.3637C 257.035 55.3637 257.329 56.1444 257.329 57.7057C 257.329 58.9599 257.137 59.7918 256.754 60.2013C 256.395 60.5853 256.063 60.7772 255.756 60.7772L 233.423 60.7772C 232.707 60.7772 232.348 59.971 232.348 58.3584C 232.374 57.181 232.719 56.2724 233.384 55.6325C 233.589 55.4533 234.037 55.3637 234.728 55.3637C 235.418 55.3637 236.122 55.3381 236.838 55.2869C 237.58 55.2102 238.156 55.1078 238.565 54.9798C 239.281 54.7494 239.639 54.3271 239.639 53.7128L 239.639 28.4113L 232.886 28.4113C 231.888 28.4113 231.389 27.4131 231.389 25.4166C 231.389 24.1368 231.709 23.3562 232.348 23.0746C 233.014 22.7931 233.871 22.5627 234.919 22.3835C 235.994 22.1788 237.094 22.0252 238.219 21.9228C 240.368 21.718 242.07 21.6029 243.323 21.5773L 243.63 21.5773C 244.679 21.5773 245.306 21.6413 245.51 21.7692C 245.766 21.8716 245.945 22.0508 246.048 22.3067C 246.175 22.5627 246.239 23.113 246.239 23.9577L 246.239 24.4184Z"/>
<path id="path6_fill" d="M 266.462 60.7772C 265.797 60.7772 265.464 59.9966 265.464 58.4352C 265.464 57.2066 265.656 56.3876 266.04 55.978C 266.424 55.5685 266.756 55.3637 267.038 55.3637L 267.421 55.3637C 270.389 55.3637 272.064 55.0694 272.448 54.4807C 272.602 54.2759 272.678 54.0199 272.678 53.7128L 272.678 6.68051L 265.925 6.68051C 265.208 6.65491 264.722 6.00222 264.467 4.72243C 264.415 4.36409 264.377 3.99295 264.351 3.60901C 264.351 2.4316 264.697 1.71492 265.388 1.45896C 266.078 1.17741 266.986 0.947045 268.112 0.767874C 269.263 0.588704 270.453 0.447927 271.681 0.345543C 274.034 0.140777 276.285 0.0255958 278.434 0C 279.509 0 280.072 1.08782 280.123 3.26347C 280.123 3.90336 280.136 4.56885 280.161 5.25994L 280.161 55.3637L 286.608 55.3637C 287.273 55.3637 287.606 56.1444 287.606 57.7057C 287.606 58.9343 287.414 59.7534 287.03 60.1629C 286.646 60.5725 286.314 60.7772 286.032 60.7772L 266.462 60.7772Z"/>
<path id="path7_fill" d="M 301.036 11.9404C 298.657 11.9404 297.032 10.891 296.163 8.79216C 295.907 8.15226 295.779 7.44838 295.779 6.68051C 295.779 4.2489 296.841 2.59797 298.964 1.72772C 299.603 1.47176 300.294 1.34378 301.036 1.34378C 302.52 1.34378 303.761 1.8557 304.758 2.87953C 305.781 3.87776 306.293 5.14476 306.293 6.68051C 306.293 8.19066 305.781 9.45765 304.758 10.4815C 303.786 11.4541 302.545 11.9404 301.036 11.9404ZM 291.903 60.7772C 291.238 60.7772 290.906 59.9966 290.906 58.4352C 290.906 57.2066 291.097 56.3876 291.481 55.978C 291.865 55.5685 292.197 55.3637 292.479 55.3637L 292.863 55.3637C 295.856 55.3637 297.544 55.0694 297.928 54.4807C 298.056 54.3015 298.12 54.0839 298.12 53.828L 298.12 28.2578L 291.366 28.2578C 290.624 28.2322 290.125 27.5795 289.87 26.2997C 289.818 25.9413 289.793 25.5702 289.793 25.1863C 289.793 24.0089 290.138 23.2922 290.829 23.0362C 291.52 22.7547 292.428 22.5243 293.553 22.3451C 294.679 22.166 295.856 22.0252 297.084 21.9228C 299.437 21.718 301.701 21.6029 303.876 21.5773L 303.914 21.5773C 304.988 21.5773 305.551 22.6651 305.602 24.8407L 305.602 55.3637L 312.049 55.3637C 312.714 55.3637 313.047 56.1444 313.047 57.7057C 313.047 58.9343 312.855 59.7534 312.471 60.1629C 312.087 60.5725 311.755 60.7772 311.474 60.7772L 291.903 60.7772Z"/>
<path id="path8_fill" d="M 343.553 60.7772C 342.888 60.7772 342.556 59.9966 342.556 58.4352C 342.556 57.2066 342.747 56.3876 343.131 55.978C 343.515 55.5685 343.848 55.3637 344.129 55.3637C 346.789 55.3637 348.12 54.8134 348.12 53.7128L 348.12 42.3099C 348.12 37.3443 347.838 34.0936 347.275 32.5579C 346.713 30.9965 345.984 29.8959 345.088 29.256C 344.218 28.5905 343.029 28.2578 341.52 28.2578C 338.68 28.2578 335.175 29.9087 331.005 33.2106L 331.005 55.3637L 337.452 55.3637C 338.117 55.3637 338.45 56.1444 338.45 57.7057C 338.45 58.9343 338.258 59.7534 337.874 60.1629C 337.49 60.5725 337.158 60.7772 336.876 60.7772L 317.306 60.7772C 316.641 60.7772 316.309 59.9966 316.309 58.4352C 316.309 57.2066 316.5 56.3876 316.884 55.978C 317.268 55.5685 317.6 55.3637 317.882 55.3637L 318.266 55.3637C 321.207 55.3637 322.883 55.0694 323.292 54.4807C 323.446 54.2759 323.523 54.0199 323.523 53.7128L 323.523 28.2578L 316.769 28.2578C 315.976 28.2322 315.477 27.6051 315.272 26.3765C 315.221 26.0181 315.196 25.647 315.196 25.2631C 315.196 24.0857 315.528 23.369 316.193 23.113C 316.884 22.8315 317.754 22.5883 318.803 22.3835C 319.852 22.1788 320.952 22.0252 322.103 21.9228C 324.405 21.6668 326.132 21.5389 327.283 21.5389L 327.437 21.5389C 328.562 21.5645 329.24 21.6924 329.47 21.9228C 329.726 22.1788 329.905 22.5115 330.008 22.921C 330.136 23.3562 330.199 24.2648 330.199 25.647L 330.199 26.3765C 334.062 24.2264 337.58 22.7547 340.752 21.9612C 341.775 21.7052 343.08 21.5773 344.666 21.5773C 346.227 21.5773 347.8 21.9228 349.386 22.6139C 350.972 23.2794 352.226 24.252 353.147 25.5318C 354.784 27.7842 355.602 31.3677 355.602 36.2821L 355.602 55.3637L 361.55 55.3637C 362.241 55.3637 362.586 56.1444 362.586 57.7057C 362.586 58.9343 362.394 59.7534 362.011 60.1629C 361.627 60.5725 361.294 60.7772 361.013 60.7772L 343.553 60.7772Z"/>
<path id="path9_fill" d="M 366.193 41.0429C 366.193 37.869 366.718 35.0535 367.767 32.5963C 368.79 30.1903 370.171 28.1682 371.911 26.5301C 375.441 23.2538 379.803 21.6029 384.996 21.5773L 385.111 21.5773C 389.869 21.5773 393.541 23.0746 396.124 26.0693C 398.708 29.0384 400 33.3257 400 38.9312C 400 40.1342 399.45 41.1709 398.35 42.0411C 397.275 42.8858 395.92 43.3081 394.282 43.3081L 374.06 43.3081C 374.52 49.2975 376.605 53.1369 380.315 54.8262C 381.491 55.3637 382.732 55.6325 384.037 55.6325C 385.341 55.6325 386.505 55.4917 387.529 55.2102C 388.552 54.903 389.537 54.5319 390.483 54.0967C 391.43 53.636 392.351 53.1241 393.246 52.561C 395.114 51.3836 396.214 50.7949 396.546 50.7949C 396.853 50.8205 397.186 50.974 397.544 51.2556C 397.851 51.5628 398.158 51.9211 398.465 52.3306C 399.13 53.3033 399.476 54.1223 399.501 54.7878L 399.501 54.8646C 399.501 55.4789 399.36 55.8884 399.079 56.0932C 394.398 59.7278 389.076 61.5451 383.116 61.5451C 377.769 61.5451 373.599 59.6766 370.606 55.9396C 367.664 52.305 366.193 47.3394 366.193 41.0429ZM 392.134 37.549L 392.134 37.3955C 392.134 32.3275 390.663 29.2048 387.721 28.0274C 386.8 27.6691 385.776 27.4899 384.651 27.4899C 383.525 27.4899 382.348 27.6947 381.12 28.1042C 379.893 28.5393 378.767 29.1664 377.744 29.9855C 375.467 31.854 374.239 34.3752 374.06 37.549L 392.134 37.549Z"/>
<path id="path10_fill" d="M 7.83255 90.0487C 3.80496 90.0284 0 92.6812 0 97.359C 0 101.368 3.40018 104.629 7.58968 104.629C 9.88989 104.629 12.0211 103.896 13.694 102.63C 13.8153 102.538 13.8841 102.394 13.8841 102.242L 13.8841 96.7857C 13.8841 96.5096 13.6602 96.2857 13.3841 96.2857L 8.33255 96.2857C 8.05641 96.2857 7.83255 96.5096 7.83255 96.7857L 7.83255 98.4992C 7.83255 98.7754 8.05641 98.9992 8.33255 98.9992L 9.76125 98.9992C 10.0374 98.9992 10.2613 99.2231 10.2613 99.4992L 10.2613 100.068C 10.2613 100.246 10.1671 100.413 10.0081 100.494C 9.29863 100.855 8.49248 101.065 7.58968 101.065C 5.46457 101.065 3.98711 99.4042 3.98711 97.359C 3.98711 94.9897 5.7884 93.5722 7.83255 93.5722C 8.77671 93.5722 9.73598 93.8594 10.5538 94.4336C 10.772 94.5869 11.0737 94.5748 11.2577 94.3817L 13.0554 92.4953C 13.2529 92.2881 13.2372 91.9564 13.0087 91.784C 11.5006 90.6457 9.66658 90.0672 7.83255 90.0487Z"/>
<path id="path11_fill" d="M 31.9518 90.0689C 27.7623 90.0689 24.3621 93.3292 24.3621 97.359C 24.3621 101.368 27.7623 104.629 31.9518 104.629C 36.1413 104.629 39.5415 101.368 39.5415 97.359C 39.5415 93.3292 36.1413 90.0689 31.9518 90.0689ZM 31.9518 93.633C 34.0769 93.633 35.5746 95.2935 35.5746 97.359C 35.5746 99.4042 34.0769 101.065 31.9518 101.065C 29.8267 101.065 28.3492 99.4042 28.3492 97.359C 28.3492 95.2935 29.8267 93.633 31.9518 93.633Z"/>
<path id="path12_fill" d="M 57.3614 90.0689C 53.1719 90.0689 49.7717 93.3292 49.7717 97.359C 49.7717 101.368 53.1719 104.629 57.3614 104.629C 61.5509 104.629 64.9511 101.368 64.9511 97.359C 64.9511 93.3292 61.5509 90.0689 57.3614 90.0689ZM 57.3614 93.633C 59.4865 93.633 60.9842 95.2935 60.9842 97.359C 60.9842 99.4042 59.4865 101.065 57.3614 101.065C 55.2363 101.065 53.7588 99.4042 53.7588 97.359C 53.7588 95.2935 55.2363 93.633 57.3614 93.633Z"/>
<path id="path13_fill" d="M 76.0642 90.2698C 75.7887 90.2707 75.5659 90.4943 75.5659 90.7698L 75.5659 103.926C 75.5659 104.202 75.7897 104.426 76.0659 104.426L 81.6376 104.426C 81.6376 104.426 81.6376 104.426 81.6376 104.426C 85.8271 104.426 89.2273 101.368 89.2273 97.359C 89.2273 93.3295 85.8276 90.2516 81.6385 90.2512C 81.6379 90.2512 81.6374 90.2512 81.6368 90.2512L 76.0642 90.2698ZM 79.3708 94.1735C 79.3708 93.8973 79.5947 93.6735 79.8708 93.6735L 81.4959 93.6735C 81.4959 93.6735 81.4959 93.6735 81.4959 93.6735C 83.6008 93.6735 85.3212 95.253 85.3212 97.3387C 85.3212 99.4447 83.6008 101.024 81.4959 101.024C 81.4959 101.024 81.4959 101.024 81.4959 101.024L 79.8708 101.024C 79.5947 101.024 79.3708 100.8 79.3708 100.524L 79.3708 94.1735Z"/>
<path id="path14_fill" d="M 105.597 90.0487C 102.298 90.0689 99.7077 91.5067 99.7077 94.686C 99.7077 97.4602 102.015 98.2095 105.233 98.979C 107.561 99.5662 107.965 99.6472 107.965 100.457C 107.965 101.105 107.277 101.389 106.488 101.389C 104.825 101.389 102.955 100.94 101.229 100.059C 100.988 99.9357 100.69 100.014 100.551 100.246L 99.3456 102.256C 99.2084 102.485 99.2744 102.782 99.5026 102.92C 101.369 104.051 103.61 104.649 106.063 104.649C 109.706 104.649 111.993 102.989 111.993 99.9712C 111.993 97.0755 109.625 96.2655 106.306 95.3745C 104.1 94.8277 103.837 94.6455 103.837 94.2C 103.837 93.552 104.464 93.2685 105.193 93.2685C 106.465 93.2685 108.157 93.6718 109.672 94.3713C 109.918 94.485 110.214 94.3946 110.344 94.1564L 111.482 92.0665C 111.609 91.8324 111.531 91.5382 111.297 91.4114C 109.696 90.5449 107.681 90.0487 105.597 90.0487Z"/>
<path id="path15_fill" d="M 141.744 90.0487C 139.619 90.0689 137.292 91.3852 137.292 93.9772C 137.292 94.9896 137.615 95.597 138.283 96.4069C 138.283 96.4066 138.283 96.4071 138.283 96.4069C 138.376 96.5209 138.34 96.6926 138.208 96.7585L 138.186 96.7698C 138.183 96.7711 138.181 96.7725 138.178 96.7739C 135.914 98.0086 135.025 99.4456 135.085 100.923C 135.207 103.576 137.797 105.115 140.793 104.993C 142.179 104.921 143.357 104.529 144.369 103.887C 144.584 103.751 144.869 103.779 145.04 103.968L 145.429 104.397C 145.601 104.586 145.888 104.616 146.094 104.465L 147.957 103.105C 148.203 102.926 148.233 102.571 148.021 102.353L 147.196 101.506C 147.028 101.333 147.008 101.064 147.141 100.862C 147.571 100.206 147.957 99.4689 148.289 98.682C 148.391 98.4401 148.279 98.1631 148.042 98.0511L 146.449 97.2993C 146.19 97.1775 145.884 97.2971 145.762 97.5551C 145.573 97.9533 145.373 98.3059 145.162 98.6247C 144.992 98.8811 144.63 98.8972 144.42 98.6727L 143.366 97.5455C 143.205 97.3743 143.26 97.0964 143.474 96.9994C 143.481 96.9961 143.488 96.9926 143.495 96.9888C 144.725 96.3207 145.711 95.3488 145.711 93.4305C 145.711 91.3852 143.809 90.0487 141.744 90.0487ZM 141.643 92.5395C 142.27 92.5192 142.837 92.9445 142.837 93.6127C 142.837 94.3386 142.456 94.6228 141.993 94.8651C 141.989 94.8672 141.985 94.8692 141.981 94.8712L 141.5 95.1061C 141.297 95.2048 141.054 95.1563 140.905 94.9875L 140.854 94.9297C 140.854 94.9292 140.853 94.9287 140.853 94.9282C 140.428 94.4427 140.287 94.2402 140.287 93.795C 140.287 92.9647 140.995 92.5395 141.643 92.5395ZM 140.063 98.9695C 140.266 98.8677 140.513 98.916 140.663 99.087L 142.265 100.915C 142.439 101.113 142.432 101.417 142.216 101.568C 141.818 101.847 141.346 102.006 140.793 102.037C 139.68 102.077 138.769 101.53 138.728 100.579C 138.688 99.9919 139.052 99.4657 140.042 98.9799C 140.043 98.9793 140.045 98.9787 140.046 98.9781L 140.063 98.9695Z"/>
<path id="path16_fill" d="M 182.986 93.6735C 183.262 93.6735 183.486 93.4496 183.486 93.1735L 183.486 90.7512C 183.486 90.4751 183.262 90.2512 182.986 90.2512L 172.834 90.2512C 172.558 90.2512 172.334 90.4751 172.334 90.7512L 172.334 103.926C 172.334 104.202 172.558 104.426 172.834 104.426L 175.639 104.426C 175.915 104.426 176.139 104.202 176.139 103.926L 176.139 100.005C 176.139 99.7293 176.363 99.5055 176.639 99.5055L 182.338 99.5055C 182.615 99.5055 182.838 99.2816 182.838 99.0055L 182.838 96.7655C 182.838 96.4893 182.615 96.2655 182.338 96.2655L 176.639 96.2655C 176.363 96.2655 176.139 96.0416 176.139 95.7655L 176.139 94.1735C 176.139 93.8973 176.363 93.6735 176.639 93.6735L 182.986 93.6735Z"/>
<path id="path17_fill" d="M 206.733 104.426C 207.087 104.426 207.329 104.07 207.198 103.741L 201.949 90.5662C 201.874 90.376 201.69 90.2512 201.485 90.2512L 197.165 90.2512C 196.96 90.2512 196.775 90.3768 196.7 90.5679L 191.508 103.743C 191.379 104.071 191.621 104.426 191.973 104.426L 195.444 104.426C 195.653 104.426 195.841 104.296 195.913 104.099L 196.583 102.283C 196.655 102.086 196.842 101.956 197.052 101.956L 201.657 101.956C 201.867 101.956 202.054 102.086 202.127 102.283L 202.796 104.099C 202.869 104.296 203.056 104.426 203.265 104.426L 206.733 104.426ZM 198.414 98.9182C 198.066 98.9182 197.824 98.5708 197.945 98.2442L 198.866 95.7659C 199.027 95.3313 199.642 95.3313 199.803 95.7659L 200.724 98.2442C 200.845 98.5708 200.603 98.9182 200.255 98.9182L 198.414 98.9182Z"/>
<path id="path18_fill" d="M 217.98 90.2701C 217.704 90.2709 217.481 90.4945 217.481 90.7701L 217.481 103.926C 217.481 104.202 217.705 104.426 217.981 104.426L 225.455 104.426C 225.455 104.426 225.455 104.426 225.455 104.426C 229.139 104.426 230.313 102.503 230.313 100.558C 230.313 99.4512 229.938 98.3439 228.916 97.6026C 228.536 97.3266 228.498 96.5731 228.833 96.2432C 229.427 95.6584 229.746 94.8607 229.746 93.8557C 229.746 91.4866 228.026 90.2514 225.112 90.2512C 225.111 90.2512 225.111 90.2512 225.111 90.2512L 217.98 90.2701ZM 221.786 95.982C 221.51 95.982 221.286 95.7581 221.286 95.482L 221.286 93.8697C 221.286 93.5936 221.51 93.3697 221.786 93.3697L 223.998 93.3697C 223.998 93.3697 223.998 93.3697 223.998 93.3697C 225.131 93.3697 225.759 93.8152 225.759 94.686C 225.759 95.5365 225.111 95.982 223.998 95.982C 223.998 95.982 223.998 95.982 223.998 95.982L 221.786 95.982ZM 221.786 101.328C 221.51 101.328 221.286 101.104 221.286 100.828L 221.286 99.0132C 221.286 98.7371 221.51 98.5132 221.786 98.5132L 224.504 98.5132C 224.504 98.5132 224.504 98.5132 224.504 98.5132C 225.901 98.5132 226.346 99.222 226.346 99.9307C 226.346 100.639 225.901 101.328 224.504 101.328C 224.504 101.328 224.504 101.328 224.504 101.328L 221.786 101.328Z"/>
<path id="path19_fill" d="M 241.098 90.2714C 240.822 90.2714 240.598 90.4953 240.598 90.7714L 240.598 103.926C 240.598 104.202 240.822 104.426 241.098 104.426L 243.903 104.426C 244.179 104.426 244.403 104.202 244.403 103.926L 244.403 100.613C 244.403 100.337 244.627 100.113 244.903 100.113L 246.042 100.113C 246.042 100.113 246.042 100.113 246.042 100.113L 246.396 100.113C 246.566 100.113 246.725 100.2 246.817 100.344L 249.275 104.195C 249.367 104.339 249.526 104.426 249.696 104.426L 252.886 104.426C 253.284 104.426 253.522 103.983 253.303 103.651L 250.993 100.147C 250.813 99.8736 250.941 99.5052 251.236 99.3621C 252.77 98.6165 253.43 97.2504 253.43 95.1922C 253.43 91.7295 251.588 90.2714 246.973 90.2714C 246.973 90.2714 246.973 90.2714 246.973 90.2714L 241.098 90.2714ZM 244.403 94.1937C 244.403 93.9176 244.627 93.6937 244.903 93.6937L 247.155 93.6937C 247.155 93.6937 247.155 93.6937 247.155 93.6937C 248.835 93.6937 249.463 94.2202 249.463 95.4352C 249.463 96.6705 248.835 97.1767 247.155 97.1767C 247.155 97.1767 247.155 97.1767 247.155 97.1767L 244.903 97.1767C 244.627 97.1767 244.403 96.9529 244.403 96.6767L 244.403 94.1937Z"/>
<path id="path20_fill" d="M 267.138 104.426C 267.415 104.426 267.638 104.202 267.638 103.926L 267.638 90.7714C 267.638 90.4953 267.415 90.2714 267.138 90.2714L 264.333 90.2714C 264.057 90.2714 263.833 90.4953 263.833 90.7714L 263.833 103.926C 263.833 104.202 264.057 104.426 264.333 104.426L 267.138 104.426Z"/>
<path id="path21_fill" d="M 285.713 90.0689C 281.584 90.0689 278.245 93.3292 278.245 97.359C 278.245 101.368 281.584 104.629 285.713 104.629C 288.04 104.629 290.111 103.601 291.467 101.97C 291.657 101.742 291.581 101.404 291.322 101.258L 288.892 99.8852C 288.671 99.7609 288.396 99.8234 288.222 100.007C 287.602 100.661 286.743 101.065 285.733 101.065C 283.669 101.065 282.232 99.4042 282.232 97.359C 282.232 95.2935 283.669 93.633 285.733 93.633C 286.743 93.633 287.602 94.0371 288.222 94.6909C 288.396 94.8743 288.671 94.9368 288.892 94.8126L 291.322 93.4398C 291.581 93.294 291.657 92.9558 291.467 92.7279C 290.111 91.0971 288.04 90.0689 285.713 90.0689Z"/>
<path id="path22_fill" d="M 316.289 104.426C 316.643 104.426 316.885 104.07 316.754 103.741L 311.506 90.5662C 311.43 90.376 311.246 90.2512 311.041 90.2512L 306.721 90.2512C 306.516 90.2512 306.332 90.3768 306.256 90.5679L 301.064 103.743C 300.935 104.071 301.177 104.426 301.53 104.426L 305 104.426C 305.21 104.426 305.397 104.296 305.469 104.099L 306.139 102.283C 306.212 102.086 306.399 101.956 306.608 101.956L 311.214 101.956C 311.423 101.956 311.61 102.086 311.683 102.283L 312.352 104.099C 312.425 104.296 312.612 104.426 312.822 104.426L 316.289 104.426ZM 307.97 98.9182C 307.622 98.9182 307.38 98.5708 307.502 98.2442L 308.422 95.7659C 308.583 95.3313 309.198 95.3313 309.359 95.7659L 310.28 98.2442C 310.401 98.5708 310.159 98.9182 309.811 98.9182L 307.97 98.9182Z"/>
<path id="path23_fill" d="M 336.008 93.5115C 336.284 93.5115 336.508 93.2876 336.508 93.0115L 336.508 90.7512C 336.508 90.4751 336.284 90.2512 336.008 90.2512L 324.965 90.2512C 324.689 90.2512 324.465 90.4751 324.465 90.7512L 324.465 93.0115C 324.465 93.2876 324.689 93.5115 324.965 93.5115L 328.074 93.5115C 328.35 93.5115 328.574 93.7353 328.574 94.0115L 328.574 103.926C 328.574 104.202 328.798 104.426 329.074 104.426L 331.899 104.426C 332.175 104.426 332.399 104.202 332.399 103.926L 332.399 94.0115C 332.399 93.7353 332.623 93.5115 332.899 93.5115L 336.008 93.5115Z"/>
<path id="path24_fill" d="M 349.823 104.426C 350.099 104.426 350.323 104.202 350.323 103.926L 350.323 90.7714C 350.323 90.4953 350.099 90.2714 349.823 90.2714L 347.018 90.2714C 346.741 90.2714 346.518 90.4953 346.518 90.7714L 346.518 103.926C 346.518 104.202 346.741 104.426 347.018 104.426L 349.823 104.426Z"/>
<path id="path25_fill" d="M 368.519 90.0689C 364.329 90.0689 360.929 93.3292 360.929 97.359C 360.929 101.368 364.329 104.629 368.519 104.629C 372.708 104.629 376.108 101.368 376.108 97.359C 376.108 93.3292 372.708 90.0689 368.519 90.0689ZM 368.519 93.633C 370.644 93.633 372.141 95.2935 372.141 97.359C 372.141 99.4042 370.644 101.065 368.519 101.065C 366.394 101.065 364.916 99.4042 364.916 97.359C 364.916 95.2935 366.394 93.633 368.519 93.633Z"/>
<path id="path26_fill" d="M 399.5 104.426C 399.776 104.426 400 104.202 400 103.926L 400 90.7512C 400 90.4751 399.776 90.2512 399.5 90.2512L 396.756 90.2512C 396.48 90.2512 396.256 90.4751 396.256 90.7512L 396.256 96.6203C 396.256 97.1056 395.634 97.3064 395.35 96.9127L 390.698 90.4588C 390.604 90.3285 390.453 90.2512 390.292 90.2512L 387.102 90.2512C 386.826 90.2512 386.602 90.4751 386.602 90.7512L 386.602 103.926C 386.602 104.202 386.826 104.426 387.102 104.426L 389.846 104.426C 390.122 104.426 390.346 104.202 390.346 103.926L 390.346 98.0742C 390.346 97.5892 390.967 97.3882 391.251 97.7813L 395.904 104.219C 395.998 104.349 396.148 104.426 396.309 104.426L 399.5 104.426Z"/>
</defs>
</svg>
